<svg width="400" height="200" viewBox="0 0 400 200" fill="none" xmlns="http://www.w3.org/2000/svg">
<path d="M9 139.597H18.4338L22.6399 169.518H22.7601L26.9662 139.597H36.4V181.403H30.1509V149.75H30.0307L25.2237 181.403H19.6956L14.8886 149.75H14.7684V181.403H9V139.597Z" fill="#0451AF"/>
<path d="M41.3324 139.597H59.3587V145.569H47.942V156.618H57.0153V162.59H47.942V175.431H59.3587V181.403H41.3324V139.597Z" fill="#0451AF"/>
<path d="M72.5349 182C69.3302 182 66.8866 181.104 65.2041 179.312C63.5217 177.481 62.6805 174.873 62.6805 171.489V149.511C62.6805 146.127 63.5217 143.539 65.2041 141.747C66.8866 139.916 69.3302 139 72.5349 139C75.7395 139 78.1831 139.916 79.8656 141.747C81.548 143.539 82.3893 146.127 82.3893 149.511V153.094H76.1401V149.093C76.1401 146.346 74.9985 144.972 72.7151 144.972C70.4318 144.972 69.2901 146.346 69.2901 149.093V171.967C69.2901 174.674 70.4318 176.028 72.7151 176.028C74.9985 176.028 76.1401 174.674 76.1401 171.967V163.785H72.8353V157.813H82.3893V171.489C82.3893 174.873 81.548 177.481 79.8656 179.312C78.1831 181.104 75.7395 182 72.5349 182Z" fill="#0451AF"/>
<path d="M91.7404 139.597H100.693L107.544 181.403H100.934L99.7321 173.101V173.221H92.2211L91.0194 181.403H84.8904L91.7404 139.597ZM98.9509 167.547L96.0066 146.883H95.8865L93.0023 167.547H98.9509Z" fill="#0451AF"/>
<path d="M129.687 182C126.523 182 124.099 181.104 122.417 179.312C120.774 177.521 119.953 174.993 119.953 171.728V149.272C119.953 146.007 120.774 143.479 122.417 141.688C124.099 139.896 126.523 139 129.687 139C132.852 139 135.255 139.896 136.898 141.688C138.58 143.479 139.421 146.007 139.421 149.272V153.692H133.172V148.854C133.172 146.266 132.071 144.972 129.868 144.972C127.664 144.972 126.563 146.266 126.563 148.854V172.206C126.563 174.754 127.664 176.028 129.868 176.028C132.071 176.028 133.172 174.754 133.172 172.206V165.815H139.421V171.728C139.421 174.993 138.58 177.521 136.898 179.312C135.255 181.104 132.852 182 129.687 182Z" fill="#0451AF"/>
<path d="M153.047 182C149.803 182 147.319 181.084 145.596 179.253C143.874 177.421 143.013 174.833 143.013 171.489V149.511C143.013 146.167 143.874 143.579 145.596 141.747C147.319 139.916 149.803 139 153.047 139C156.292 139 158.776 139.916 160.498 141.747C162.221 143.579 163.082 146.167 163.082 149.511V171.489C163.082 174.833 162.221 177.421 160.498 179.253C158.776 181.084 156.292 182 153.047 182ZM153.047 176.028C155.331 176.028 156.472 174.654 156.472 171.907V149.093C156.472 146.346 155.331 144.972 153.047 144.972C150.764 144.972 149.622 146.346 149.622 149.093V171.907C149.622 174.654 150.764 176.028 153.047 176.028Z" fill="#0451AF"/>
<path d="M167.552 139.597H176.986L181.192 169.518H181.312L185.518 139.597H194.952V181.403H188.703V149.75H188.583L183.776 181.403H178.248L173.441 149.75H173.32V181.403H167.552V139.597Z" fill="#0451AF"/>
<path d="M199.884 139.597H209.619C212.903 139.597 215.367 140.473 217.009 142.225C218.652 143.977 219.473 146.545 219.473 149.929V154.05C219.473 157.434 218.652 160.002 217.009 161.754C215.367 163.506 212.903 164.382 209.619 164.382H206.494V181.403H199.884V139.597ZM209.619 158.41C210.7 158.41 211.501 158.111 212.022 157.514C212.583 156.917 212.863 155.901 212.863 154.468V149.511C212.863 148.078 212.583 147.062 212.022 146.465C211.501 145.868 210.7 145.569 209.619 145.569H206.494V158.41H209.619Z" fill="#0451AF"/>
<path d="M226.058 139.597H235.011L241.861 181.403H235.251L234.049 173.101V173.221H226.538L225.337 181.403H219.208L226.058 139.597ZM233.268 167.547L230.324 146.883H230.204L227.32 167.547H233.268Z" fill="#0451AF"/>
<path d="M245.068 139.597H253.36L259.789 164.621H259.909V139.597H265.798V181.403H259.008L251.076 150.885H250.956V181.403H245.068V139.597Z" fill="#0451AF"/>
<path d="M276.779 163.606L268.788 139.597H275.818L280.324 154.946H280.445L284.951 139.597H291.381L283.389 163.606V181.403H276.779V163.606Z" fill="#0451AF"/>
<path d="M312.574 182C309.37 182 306.946 181.104 305.304 179.312C303.661 177.481 302.84 174.873 302.84 171.489V169.1H309.089V171.967C309.089 174.674 310.231 176.028 312.514 176.028C313.636 176.028 314.477 175.709 315.038 175.072C315.639 174.395 315.939 173.32 315.939 171.847C315.939 170.095 315.539 168.563 314.737 167.249C313.936 165.895 312.454 164.282 310.291 162.411C307.567 160.022 305.664 157.872 304.583 155.961C303.501 154.01 302.96 151.82 302.96 149.392C302.96 146.087 303.801 143.539 305.484 141.747C307.166 139.916 309.61 139 312.815 139C315.979 139 318.363 139.916 319.965 141.747C321.607 143.539 322.429 146.127 322.429 149.511V151.243H316.18V149.093C316.18 147.66 315.899 146.625 315.338 145.987C314.777 145.311 313.956 144.972 312.875 144.972C310.672 144.972 309.57 146.306 309.57 148.974C309.57 150.487 309.97 151.9 310.772 153.214C311.613 154.528 313.115 156.12 315.278 157.992C318.042 160.381 319.945 162.55 320.987 164.501C322.028 166.452 322.549 168.742 322.549 171.369C322.549 174.794 321.688 177.421 319.965 179.253C318.283 181.084 315.819 182 312.574 182Z" fill="#0451AF"/>
<path d="M331.27 139.597H340.223L347.073 181.403H340.463L339.262 173.101V173.221H331.751L330.549 181.403H324.42L331.27 139.597ZM338.481 167.547L335.536 146.883H335.416L332.532 167.547H338.481Z" fill="#0451AF"/>
<path d="M350.28 139.597H360.074C363.479 139.597 365.963 140.394 367.525 141.986C369.087 143.539 369.868 145.948 369.868 149.212V151.781C369.868 156.12 368.426 158.868 365.542 160.022V160.142C367.144 160.619 368.266 161.595 368.907 163.068C369.588 164.541 369.929 166.512 369.929 168.981V176.326C369.929 177.521 369.969 178.496 370.049 179.253C370.129 179.969 370.329 180.686 370.65 181.403H363.92C363.679 180.726 363.519 180.089 363.439 179.492C363.359 178.894 363.319 177.819 363.319 176.267V168.622C363.319 166.711 362.998 165.377 362.357 164.621C361.757 163.864 360.695 163.486 359.173 163.486H356.889V181.403H350.28V139.597ZM359.293 157.514C360.615 157.514 361.596 157.175 362.237 156.499C362.918 155.822 363.259 154.687 363.259 153.094V149.869C363.259 148.356 362.978 147.262 362.418 146.585C361.897 145.908 361.056 145.569 359.894 145.569H356.889V157.514H359.293Z" fill="#0451AF"/>
<path d="M374.514 139.597H381.124V175.431H392V181.403H374.514V139.597Z" fill="#0451AF"/>
<path d="M206.289 53.4125V125.988C206.289 127.604 208.107 128.553 209.433 127.629L241.001 105.615C241.538 105.241 241.857 104.628 241.857 103.975V95.1656C241.857 93.5631 240.067 92.6113 238.739 93.5078L219.329 106.607C218.001 107.504 216.21 106.552 216.21 104.949V72.0643C216.21 70.4592 218.006 69.5081 219.334 70.4097L238.734 83.5827C240.062 84.4843 241.857 83.5332 241.857 81.9281V75.145C241.857 74.4868 241.534 73.8708 240.991 73.4976L209.423 51.7652C208.096 50.8517 206.289 51.8016 206.289 53.4125Z" fill="#E23A30"/>
<path d="M241.857 51.5086V67.635C241.857 69.2489 240.044 70.1982 238.718 69.2787L227.035 61.1797C225.885 60.3822 225.888 58.6803 227.042 57.8876L238.725 49.8602C240.052 48.9484 241.857 49.8985 241.857 51.5086Z" fill="#E23A30"/>
<path d="M159.744 51.285V104.29C159.744 104.944 160.065 105.558 160.602 105.932L167.703 110.868C169.026 111.788 170.837 110.847 170.845 109.236L171.016 73.9817C171.025 72.2776 173.024 71.3639 174.318 72.473L180.001 77.3441C180.783 78.0148 181.947 77.981 182.69 77.2662L186.542 73.5562C187.813 72.3328 189.93 73.2331 189.93 74.9968V124.65C189.93 125.31 190.255 125.928 190.8 126.301L198.515 131.583C199.842 132.492 201.645 131.542 201.645 129.933V49.6121C201.645 48.0225 199.88 47.0682 198.55 47.9384L180.178 59.9578C179.5 60.4009 178.623 60.3921 177.955 59.9357L162.872 49.6335C161.545 48.7268 159.744 49.6774 159.744 51.285Z" fill="#0053BB"/>
<path d="M166.216 45.5721L177.934 53.4913C178.613 53.9503 179.503 53.9485 180.18 53.4867L213.46 30.7917C214.627 29.9959 214.624 28.2737 213.453 27.4825L202.022 19.7541C201.347 19.2982 200.464 19.2965 199.788 19.7498L166.223 42.2538C165.044 43.0443 165.04 44.7772 166.216 45.5721Z" fill="#0053BB"/>
<path d="M235.355 45.5316L223.359 53.6919C222.676 54.1565 221.778 54.1534 221.098 53.6841L208.273 44.8305C207.115 44.0313 207.122 42.3184 208.287 41.5291L220.448 33.2859C221.137 32.8188 222.043 32.8274 222.723 33.3075L235.383 42.2441C236.524 43.0493 236.509 44.7462 235.355 45.5316Z" fill="#0053BB"/>
</svg>
